<svg width="116" height="116" viewBox="0 0 116 116" fill="none" xmlns="http://www.w3.org/2000/svg">
<rect width="116" height="116" rx="30" fill="#FFCACA"/>
<path d="M76.5037 67.606L69.81 61.5989C67.7483 59.7487 64.4947 61.4426 64.828 64.1926L66.4943 77.9394C66.6016 78.8245 67.097 79.616 67.8461 80.0993L72.8736 83.3428C74.8698 84.6307 77.4999 83.1976 77.4999 80.8219V69.8388C77.4999 68.9868 77.1377 68.1751 76.5037 67.606Z" fill="#F78F8F"/>
<path d="M38.9963 67.606L45.69 61.5989C47.7517 59.7487 51.0053 61.4426 50.672 64.1926L49.0057 77.9394C48.8984 78.8245 48.403 79.616 47.6539 80.0993L42.6264 83.3428C40.6302 84.6307 38.0001 83.1976 38.0001 80.8219V69.8388C38.0001 68.9868 38.3623 68.1751 38.9963 67.606Z" fill="#F78F8F"/>
<path d="M63.6417 74.4425H52.2677C49.0658 74.4425 46.411 71.9225 46.3911 68.7208C46.2313 42.9903 53.907 31.5579 58.038 29C67.3856 35.4676 69.5372 55.6813 69.4574 68.8226C69.4381 71.9882 66.8074 74.4425 63.6417 74.4425Z" fill="#F16A6A"/>
<rect x="54.7793" y="49.9736" width="7" height="7" rx="3.5" transform="rotate(-90 54.7793 49.9736)" fill="white"/>
</svg>
