<svg width="116" height="116" viewBox="0 0 116 116" fill="none" xmlns="http://www.w3.org/2000/svg">
<rect width="116" height="116" rx="30" fill="#CAC2FF"/>
<path d="M59.4004 74.2359L71.4775 80.4997C72.0084 80.7753 72.3409 81.3229 72.3409 81.9214V85.1567C72.3409 86.2625 71.2469 87.0356 70.2057 86.6661L59.4844 82.8528C58.8462 82.6256 58.4199 82.0216 58.4199 81.3434V74.8326C58.4208 74.3289 58.9535 74.0041 59.4004 74.2359Z" fill="#7B65FF"/>
<path d="M57.4991 74.2359L45.4219 80.4997C44.8911 80.7753 44.5586 81.3229 44.5586 81.9214V85.1567C44.5586 86.2625 45.6525 87.0356 46.6937 86.6661L57.4151 82.8528C58.0532 82.6256 58.4795 82.0216 58.4795 81.3434V74.8326C58.4795 74.3289 57.946 74.0041 57.4991 74.2359Z" fill="#7B65FF"/>
<path d="M76.4521 56.8648H74.1722C73.1614 56.8648 72.3418 56.0444 72.3418 55.0325V49.1927C72.3418 48.1808 73.1614 47.3604 74.1722 47.3604H76.4521C77.4629 47.3604 78.2825 48.1808 78.2825 49.1927V55.0325C78.2825 56.0444 77.4629 56.8648 76.4521 56.8648Z" fill="#A899FF"/>
<path d="M64.623 47.3604L84.6027 56.9803C87.0936 58.1801 86.0416 61.2704 83.1423 61.2704H64.623V47.3604Z" fill="#7B65FF"/>
<path d="M43.0146 56.8648H40.7347C39.7239 56.8648 38.9043 56.0444 38.9043 55.0325V49.1927C38.9043 48.1808 39.7239 47.3604 40.7347 47.3604H43.0146C44.0254 47.3604 44.845 48.1808 44.845 49.1927V55.0325C44.8441 56.0444 44.0254 56.8648 43.0146 56.8648Z" fill="#A899FF"/>
<path d="M52.2198 47.3604L32.2402 56.9803C29.7493 58.1801 30.8012 61.2704 33.7005 61.2704H52.2198V47.3604Z" fill="#7B65FF"/>
<path d="M58.4224 27.6644C58.4224 27.6644 51.1035 27.2394 51.1035 45.8225C51.1035 62.6207 54.657 81.1546 57.534 86.8333C57.904 87.5634 58.9416 87.5634 59.3108 86.8333C62.1868 81.1546 65.7413 62.6207 65.7413 45.8225C65.7413 27.2394 58.4224 27.6644 58.4224 27.6644Z" fill="#5236FF"/>
<path d="M62.3033 35.8006C62.3033 34.7935 61.9032 33.8277 61.1911 33.1156C60.479 32.4035 59.5132 32.0034 58.5061 32.0034C57.4991 32.0034 56.5333 32.4035 55.8211 33.1156C55.109 33.8277 54.709 34.7935 54.709 35.8006L58.5061 35.8006H62.3033Z" fill="white"/>
</svg>
