<svg width="116" height="116" viewBox="0 0 116 116" fill="none" xmlns="http://www.w3.org/2000/svg">
<rect width="116" height="116" rx="30" fill="#EFADFF"/>
<path d="M76.4863 81.9969C79.4221 81.9969 81.5655 79.1868 80.8672 76.2778C78.3504 65.7865 69.0663 58 58 58C46.9337 58 37.6466 65.7896 35.1328 76.2809C34.4345 79.1899 36.5779 82 39.5137 82H76.4863V81.9969Z" fill="#C555E1"/>
<path d="M73 87C79.0751 87 84 82.0751 84 76C84 69.9249 79.0751 65 73 65C66.9249 65 62 69.9249 62 76C62 82.0751 66.9249 87 73 87Z" fill="#E192F4"/>
<path d="M57.9725 54.9642C65.1371 54.9642 70.9451 49.1519 70.9451 41.9821C70.9451 34.8123 65.1371 29 57.9725 29C50.808 29 45 34.8123 45 41.9821C45 49.1519 50.808 54.9642 57.9725 54.9642Z" fill="#C555E1"/>
<path d="M68 75.5C68 74.6716 68.6716 74 69.5 74H77.5C78.3284 74 79 74.6716 79 75.5C79 76.3284 78.3284 77 77.5 77H69.5C68.6716 77 68 76.3284 68 75.5Z" fill="white"/>
<path d="M73.5 81C72.6716 81 72 80.3284 72 79.5V71.5C72 70.6716 72.6716 70 73.5 70C74.3284 70 75 70.6716 75 71.5V79.5C75 80.3284 74.3284 81 73.5 81Z" fill="white"/>
</svg>
