<svg width="297" height="237" viewBox="0 0 297 237" fill="none" xmlns="http://www.w3.org/2000/svg">
<rect x="1.87012" y="1" width="257.407" height="188.992" stroke="#C6C6C6" stroke-width="2" stroke-linejoin="round" stroke-dasharray="3 3"/>
<rect x="27.8701" y="26" width="268.26" height="202.564" fill="#F1F1F1"/>
<rect x="34.4395" y="55.563" width="255.121" height="168.621" fill="white"/>
<rect x="272.041" y="39.1392" width="16.4241" height="4.37976" rx="2.18988" fill="#C4C4C4"/>
<circle cx="37.1768" cy="40.7818" r="2.73735" fill="#C4C4C4"/>
<circle cx="44.8418" cy="40.7818" r="2.73735" fill="#C4C4C4"/>
<circle cx="52.5069" cy="40.7818" r="2.73735" fill="#C4C4C4"/>
<path d="M80.8701 102L240.87 179.5" stroke="#FFB422" stroke-width="4"/>
<path d="M152.37 196.5L164.87 73.5" stroke="#FFB422" stroke-width="4"/>
<path d="M78.3701 188.5L240.37 101.5" stroke="#FFB422" stroke-width="4"/>
<g filter="url(#filter0_d_1_3224)">
<rect x="125.87" y="100" width="70" height="70" rx="35" fill="#5236FF"/>
</g>
<rect x="221.87" y="161" width="40" height="40" rx="20" fill="#F1F1F1"/>
<rect x="59.8701" y="77" width="42" height="42" rx="21" fill="#F1F1F1"/>
<rect x="61.8701" y="173" width="36" height="36" rx="18" fill="#F1F1F1"/>
<rect x="217.87" y="82" width="36" height="36" rx="18" fill="#F1F1F1"/>
<rect x="139.87" y="187" width="24" height="24" rx="12" fill="#F1F1F1"/>
<rect x="152.87" y="61" width="24" height="24" rx="12" fill="#F1F1F1"/>
<g filter="url(#filter1_d_1_3224)">
<rect x="139.87" y="121" width="28" height="22" rx="3" fill="white"/>
</g>
<g filter="url(#filter2_d_1_3224)">
<rect x="153.87" y="128" width="28" height="22" rx="3" fill="#F0F0F0"/>
</g>
<defs>
<filter id="filter0_d_1_3224" x="109.87" y="89" width="112" height="112" filterUnits="userSpaceOnUse" color-interpolation-filters="sRGB">
<feFlood flood-opacity="0" result="BackgroundImageFix"/>
<feColorMatrix in="SourceAlpha" type="matrix" values="0 0 0 0 0 0 0 0 0 0 0 0 0 0 0 0 0 0 127 0" result="hardAlpha"/>
<feOffset dx="5" dy="10"/>
<feGaussianBlur stdDeviation="10.5"/>
<feComposite in2="hardAlpha" operator="out"/>
<feColorMatrix type="matrix" values="0 0 0 0 0.700272 0 0 0 0 0.700272 0 0 0 0 0.700272 0 0 0 0.25 0"/>
<feBlend mode="normal" in2="BackgroundImageFix" result="effect1_dropShadow_1_3224"/>
<feBlend mode="normal" in="SourceGraphic" in2="effect1_dropShadow_1_3224" result="shape"/>
</filter>
<filter id="filter1_d_1_3224" x="135.87" y="121" width="36" height="30" filterUnits="userSpaceOnUse" color-interpolation-filters="sRGB">
<feFlood flood-opacity="0" result="BackgroundImageFix"/>
<feColorMatrix in="SourceAlpha" type="matrix" values="0 0 0 0 0 0 0 0 0 0 0 0 0 0 0 0 0 0 127 0" result="hardAlpha"/>
<feOffset dy="4"/>
<feGaussianBlur stdDeviation="2"/>
<feComposite in2="hardAlpha" operator="out"/>
<feColorMatrix type="matrix" values="0 0 0 0 0 0 0 0 0 0 0 0 0 0 0 0 0 0 0.25 0"/>
<feBlend mode="normal" in2="BackgroundImageFix" result="effect1_dropShadow_1_3224"/>
<feBlend mode="normal" in="SourceGraphic" in2="effect1_dropShadow_1_3224" result="shape"/>
</filter>
<filter id="filter2_d_1_3224" x="149.87" y="128" width="36" height="30" filterUnits="userSpaceOnUse" color-interpolation-filters="sRGB">
<feFlood flood-opacity="0" result="BackgroundImageFix"/>
<feColorMatrix in="SourceAlpha" type="matrix" values="0 0 0 0 0 0 0 0 0 0 0 0 0 0 0 0 0 0 127 0" result="hardAlpha"/>
<feOffset dy="4"/>
<feGaussianBlur stdDeviation="2"/>
<feComposite in2="hardAlpha" operator="out"/>
<feColorMatrix type="matrix" values="0 0 0 0 0 0 0 0 0 0 0 0 0 0 0 0 0 0 0.25 0"/>
<feBlend mode="normal" in2="BackgroundImageFix" result="effect1_dropShadow_1_3224"/>
<feBlend mode="normal" in="SourceGraphic" in2="effect1_dropShadow_1_3224" result="shape"/>
</filter>
</defs>
</svg>
