<?xml version="1.0" encoding="utf-8"?><svg viewBox="0 0 14 20" xmlns="http://www.w3.org/2000/svg" xmlns:xlink="http://www.w3.org/1999/xlink"><style>:root>svg{display:none}:root>svg:target{display:block}</style><svg viewBox="0 0 14 20" id="arrow-right" xmlns="http://www.w3.org/2000/svg"><path d="M1.616 20c-.268 0-.532-.088-.765-.253-.526-.37-.852-1.087-.852-1.866V2.12c0-.782.326-1.497.852-1.867.238-.17.51-.258.785-.253.275.004.544.1.78.278L13.26 8.342c.226.176.412.42.541.71.13.29.197.616.197.947 0 .332-.068.658-.197.948-.129.29-.315.534-.541.71L2.414 19.722c-.24.181-.516.277-.798.278Z"/></svg></svg>