<?xml version="1.0" encoding="utf-8"?><svg viewBox="0 0 800 800" xmlns="http://www.w3.org/2000/svg" xmlns:xlink="http://www.w3.org/1999/xlink"><style>:root>svg{display:none}:root>svg:target{display:block}</style><svg viewBox="0 0 10 17" id="arrow-left" xmlns="http://www.w3.org/2000/svg"><path d="M.206 9.028a.53.53 0 0 1 0-.77L8.008.456a.53.53 0 0 1 .77 0l.837.838a.53.53 0 0 1 0 .77l-6.58 6.579 6.58 6.58a.53.53 0 0 1 0 .77l-.837.836a.53.53 0 0 1-.385.168.53.53 0 0 1-.385-.168L.206 9.028Z"/></svg><svg viewBox="0 0 14 20" id="arrow-right" xmlns="http://www.w3.org/2000/svg"><path d="M1.616 20c-.268 0-.532-.088-.765-.253-.526-.37-.852-1.087-.852-1.866V2.12c0-.782.326-1.497.852-1.867.238-.17.51-.258.785-.253.275.004.544.1.78.278L13.26 8.342c.226.176.412.42.541.71.13.29.197.616.197.947 0 .332-.068.658-.197.948-.129.29-.315.534-.541.71L2.414 19.722c-.24.181-.516.277-.798.278Z"/></svg><svg viewBox="0 0 24 24" id="arrow-up" xmlns="http://www.w3.org/2000/svg"><path fill-rule="evenodd" d="m4.387 10.79-.094-.083a1 1 0 0 1-.083-1.32l.083-.094 7-7 .044-.042.068-.055.11-.071.114-.054.105-.035.148-.03L12 2l.075.003.126.017.111.03.111.044.098.052.104.074.082.073 7 7a1 1 0 0 1-1.32 1.497l-.094-.083L13 5.416V21a1 1 0 0 1-2 0V5.414l-5.293 5.293a1 1 0 0 1-1.32.083l-.094-.083.094.083Z"/></svg><svg viewBox="0 0 10 19" id="facebook" xmlns="http://www.w3.org/2000/svg"><path d="m9.184 10.875.492-3.234h-3.13V5.53c0-.914.423-1.758 1.829-1.758h1.441V.996S8.516.75 7.286.75C4.718.75 3.03 2.332 3.03 5.145V7.64H.148v3.234h2.883v7.875h3.516v-7.875h2.637Z"/></svg><svg viewBox="0 0 26 17" id="icon-android" xmlns="http://www.w3.org/2000/svg"><path d="m19.373 5.508 2.104-3.86a.477.477 0 0 0 .043-.343.45.45 0 0 0-.197-.275.406.406 0 0 0-.58.164l-2.13 3.91a12.387 12.387 0 0 0-5.427-1.225c-1.97 0-3.8.439-5.427 1.225l-2.13-3.91a.43.43 0 0 0-.26-.21.406.406 0 0 0-.323.046.45.45 0 0 0-.198.275.475.475 0 0 0 .043.342l2.1 3.86C3.364 7.588.906 11.478.5 16.032h25.368c-.405-4.553-2.863-8.443-6.495-10.523ZM7.36 12.258c-.21 0-.416-.066-.59-.19a1.115 1.115 0 0 1-.392-.505 1.188 1.188 0 0 1-.061-.65c.041-.219.142-.42.291-.577.149-.157.338-.265.544-.308.207-.044.42-.021.615.064.194.085.36.23.477.415a1.174 1.174 0 0 1-.132 1.421c-.2.212-.47.33-.752.33Zm11.644 0c-.21 0-.416-.067-.59-.192-.174-.124-.31-.3-.39-.506-.08-.206-.1-.432-.058-.65.041-.218.143-.418.292-.575.149-.158.338-.264.544-.307.206-.043.42-.02.614.064.194.086.36.23.476.415a1.173 1.173 0 0 1-.133 1.422 1.061 1.061 0 0 1-.346.244c-.13.057-.268.086-.407.085h-.002Z"/></svg><svg viewBox="0 0 20 22" id="icon-apple" xmlns="http://www.w3.org/2000/svg"><path d="M14.474 5.149c-1.976 0-2.81.945-4.187.945-1.41 0-2.487-.938-4.2-.938-1.675 0-3.463 1.025-4.598 2.771C-.104 10.39.166 15.03 2.747 18.98c.924 1.415 2.157 3.001 3.774 3.018h.03c1.405 0 1.822-.922 3.757-.933h.029c1.905 0 2.288.928 3.687.928h.03c1.617-.017 2.916-1.775 3.84-3.184.664-1.014.91-1.522 1.42-2.669-3.733-1.42-4.333-6.723-.64-8.756-1.128-1.414-2.712-2.233-4.205-2.233l.005-.002Z"/><path d="M14.039 0c-1.176.08-2.549.83-3.352 1.81-.73.888-1.33 2.204-1.094 3.481h.094c1.253 0 2.535-.755 3.283-1.723C13.692 2.646 14.24 1.34 14.04 0Z"/></svg><svg viewBox="0 0 96 103" id="icon-coins" xmlns="http://www.w3.org/2000/svg"><rect width="96" height="103" rx="20"/><mask id="ga" maskUnits="userSpaceOnUse" x="0" y="0" width="96" height="103"><rect width="96" height="103" rx="20"/></mask><g mask="url(#ga)"><path d="M77.11 69.685C77.11 76.486 65.468 82 51.107 82c-14.36 0-26.002-5.514-26.002-12.315 0-6.802 11.641-12.315 26.002-12.315 14.361 0 26.003 5.513 26.003 12.315Z"/><path d="M77.11 68.96c0 6.802-11.642 12.316-26.003 12.316-14.36 0-26.002-5.514-26.002-12.316 0-6.801 11.641-12.315 26.002-12.315 14.361 0 26.003 5.514 26.003 12.315Z"/><path d="M77.11 68.236c0 6.801-11.642 12.315-26.003 12.315-14.36 0-26.002-5.514-26.002-12.315 0-6.802 11.641-12.315 26.002-12.315 14.361 0 26.003 5.514 26.003 12.315Z"/><path d="M77.11 67.511c0 6.802-11.642 12.316-26.003 12.316-14.36 0-26.002-5.514-26.002-12.316 0-6.8 11.641-12.315 26.002-12.315 14.361 0 26.003 5.514 26.003 12.316Z"/><path d="M77.11 66.787c0 6.802-11.642 12.315-26.003 12.315-14.36 0-26.002-5.513-26.002-12.315 0-6.801 11.641-12.315 26.002-12.315 14.361 0 26.003 5.514 26.003 12.315Z"/><path d="M77.11 66.063c0 6.801-11.642 12.315-26.003 12.315-14.36 0-26.002-5.514-26.002-12.315 0-6.802 11.641-12.315 26.002-12.315 14.361 0 26.003 5.513 26.003 12.315Z"/><path d="M77.11 65.338c0 6.802-11.642 12.315-26.003 12.315-14.36 0-26.002-5.513-26.002-12.315 0-6.801 11.641-12.315 26.002-12.315 14.361 0 26.003 5.514 26.003 12.315Z"/><path d="M77.11 64.614c0 6.801-11.642 12.315-26.003 12.315-14.36 0-26.002-5.514-26.002-12.315 0-6.802 11.641-12.315 26.002-12.315 14.361 0 26.003 5.513 26.003 12.315Z"/><path d="M77.11 63.89c0 6.8-11.642 12.315-26.003 12.315-14.36 0-26.002-5.514-26.002-12.316 0-6.801 11.641-12.315 26.002-12.315 14.361 0 26.003 5.514 26.003 12.315Z"/><path d="M77.11 63.165c0 6.801-11.642 12.315-26.003 12.315-14.36 0-26.002-5.514-26.002-12.315 0-6.801 11.641-12.315 26.002-12.315 14.361 0 26.003 5.514 26.003 12.315Z"/><path d="M77.11 62.44c0 6.802-11.642 12.316-26.003 12.316-14.36 0-26.002-5.514-26.002-12.315 0-6.802 11.641-12.316 26.002-12.316 14.361 0 26.003 5.514 26.003 12.316Z"/><path d="M77.11 67.685C77.11 74.486 65.468 80 51.107 80c-14.36 0-26.002-5.514-26.002-12.315 0-6.802 11.641-12.315 26.002-12.315 14.361 0 26.003 5.513 26.003 12.315Z"/><path d="M77.11 66.96c0 6.802-11.642 12.316-26.003 12.316-14.36 0-26.002-5.514-26.002-12.316 0-6.801 11.641-12.315 26.002-12.315 14.361 0 26.003 5.514 26.003 12.315Z"/><path d="M77.11 66.236c0 6.801-11.642 12.315-26.003 12.315-14.36 0-26.002-5.514-26.002-12.315 0-6.802 11.641-12.315 26.002-12.315 14.361 0 26.003 5.514 26.003 12.315Z"/><path d="M77.11 65.511c0 6.802-11.642 12.316-26.003 12.316-14.36 0-26.002-5.514-26.002-12.316 0-6.8 11.641-12.315 26.002-12.315 14.361 0 26.003 5.514 26.003 12.316Z"/><path d="M77.11 64.787c0 6.802-11.642 12.315-26.003 12.315-14.36 0-26.002-5.513-26.002-12.315 0-6.801 11.641-12.315 26.002-12.315 14.361 0 26.003 5.514 26.003 12.315Z"/><path d="M77.11 64.063c0 6.801-11.642 12.315-26.003 12.315-14.36 0-26.002-5.514-26.002-12.315 0-6.802 11.641-12.315 26.002-12.315 14.361 0 26.003 5.513 26.003 12.315Z"/><path d="M77.11 63.338c0 6.802-11.642 12.315-26.003 12.315-14.36 0-26.002-5.513-26.002-12.315 0-6.801 11.641-12.315 26.002-12.315 14.361 0 26.003 5.514 26.003 12.315Z"/><path d="M77.11 62.614c0 6.801-11.642 12.315-26.003 12.315-14.36 0-26.002-5.514-26.002-12.315 0-6.802 11.641-12.315 26.002-12.315 14.361 0 26.003 5.513 26.003 12.315Z"/><path d="M77.11 61.89c0 6.8-11.642 12.315-26.003 12.315-14.36 0-26.002-5.514-26.002-12.316 0-6.801 11.641-12.315 26.002-12.315 14.361 0 26.003 5.514 26.003 12.315Z"/><path d="M77.11 61.165c0 6.801-11.642 12.315-26.003 12.315-14.36 0-26.002-5.514-26.002-12.315 0-6.801 11.641-12.315 26.002-12.315 14.361 0 26.003 5.514 26.003 12.315Z"/><path d="M77.11 60.44c0 6.802-11.642 12.316-26.003 12.316-14.36 0-26.002-5.514-26.002-12.315 0-6.802 11.641-12.316 26.002-12.316 14.361 0 26.003 5.514 26.003 12.316Z"/><ellipse cx="51.107" cy="59.869" rx="26.003" ry="11.743"/><path d="M56.979 61.99c0 .623-.398 1.15-1.194 1.58-.781.424-1.84.697-3.175.82v.658c0 .208-.121.373-.363.496-.227.13-.533.196-.916.196-.37 0-.675-.065-.917-.196-.241-.123-.362-.288-.362-.496v-.623a16.887 16.887 0 0 1-2.28-.266 11.03 11.03 0 0 1-1.919-.53c-.227-.077-.39-.162-.49-.254a.55.55 0 0 1-.128-.37c0-.192.107-.361.32-.507.227-.146.483-.22.767-.22.27 0 .604.062 1.002.185.654.208 1.272.362 1.854.462.597.092 1.215.138 1.854.138.853 0 1.506-.085 1.961-.254.455-.177.682-.423.682-.738 0-.192-.135-.35-.405-.473a3.778 3.778 0 0 0-.959-.289c-.383-.069-.938-.157-1.662-.265a37.274 37.274 0 0 1-2.6-.439c-.682-.146-1.272-.377-1.77-.692-.482-.315-.724-.738-.724-1.27 0-.622.405-1.157 1.215-1.603.824-.446 1.897-.731 3.218-.854v-.658c0-.207.12-.373.362-.496.242-.13.547-.196.917-.196.383 0 .689.065.916.196.242.123.363.289.363.496v.635a12.51 12.51 0 0 1 3.601.785c.214.076.363.165.448.265.1.1.15.22.15.358 0 .192-.114.361-.342.507-.213.146-.462.22-.746.22-.156 0-.305-.012-.447-.035a4.813 4.813 0 0 1-.554-.15 13.76 13.76 0 0 0-1.578-.45c-.454-.1-1.016-.15-1.683-.15-.768 0-1.386.092-1.855.277-.454.184-.681.43-.681.738 0 .216.134.393.404.531.27.13.611.235 1.023.312.413.077.988.165 1.727.265 1.037.139 1.882.28 2.536.427.668.139 1.236.365 1.705.68.483.308.725.724.725 1.247Z"/><path d="M77.11 54.264c0 6.801-11.642 12.315-26.003 12.315-14.36 0-26.002-5.514-26.002-12.315 0-6.802 11.641-12.315 26.002-12.315 14.361 0 26.003 5.513 26.003 12.315Z"/><path d="M77.11 53.54c0 6.8-11.642 12.315-26.003 12.315-14.36 0-26.002-5.514-26.002-12.316 0-6.801 11.641-12.315 26.002-12.315 14.361 0 26.003 5.514 26.003 12.316Z"/><path d="M77.11 52.815c0 6.802-11.642 12.315-26.003 12.315-14.36 0-26.002-5.513-26.002-12.315 0-6.801 11.641-12.315 26.002-12.315 14.361 0 26.003 5.514 26.003 12.315Z"/><path d="M77.11 52.09c0 6.802-11.642 12.316-26.003 12.316-14.36 0-26.002-5.514-26.002-12.315 0-6.802 11.641-12.316 26.002-12.316 14.361 0 26.003 5.514 26.003 12.316Z"/><path d="M77.11 51.366c0 6.802-11.642 12.315-26.003 12.315-14.36 0-26.002-5.513-26.002-12.315 0-6.801 11.641-12.315 26.002-12.315 14.361 0 26.003 5.514 26.003 12.315Z"/><path d="M77.11 50.642c0 6.801-11.642 12.315-26.003 12.315-14.36 0-26.002-5.514-26.002-12.315 0-6.802 11.641-12.315 26.002-12.315 14.361 0 26.003 5.513 26.003 12.315Z"/><path d="M77.11 49.917c0 6.802-11.642 12.316-26.003 12.316-14.36 0-26.002-5.514-26.002-12.316 0-6.801 11.641-12.315 26.002-12.315 14.361 0 26.003 5.514 26.003 12.315Z"/><path d="M77.11 49.193c0 6.801-11.642 12.315-26.003 12.315-14.36 0-26.002-5.514-26.002-12.315 0-6.801 11.641-12.315 26.002-12.315 14.361 0 26.003 5.514 26.003 12.315Z"/><path d="M77.11 48.468c0 6.802-11.642 12.316-26.003 12.316-14.36 0-26.002-5.514-26.002-12.316 0-6.8 11.641-12.315 26.002-12.315 14.361 0 26.003 5.514 26.003 12.316Z"/><path d="M77.11 47.744c0 6.802-11.642 12.315-26.003 12.315-14.36 0-26.002-5.513-26.002-12.315 0-6.801 11.641-12.315 26.002-12.315 14.361 0 26.003 5.514 26.003 12.315Z"/><path d="M77.11 47.02c0 6.801-11.642 12.315-26.003 12.315-14.36 0-26.002-5.514-26.002-12.315 0-6.802 11.641-12.315 26.002-12.315 14.361 0 26.003 5.513 26.003 12.315Z"/><ellipse cx="51.107" cy="46.448" rx="26.003" ry="11.743"/><path d="M56.979 48.57c0 .622-.398 1.15-1.194 1.58-.781.423-1.84.696-3.175.82v.657c0 .208-.121.373-.363.496-.227.13-.533.196-.916.196-.37 0-.675-.065-.917-.196-.241-.123-.362-.288-.362-.496v-.623a16.887 16.887 0 0 1-2.28-.265 11.03 11.03 0 0 1-1.919-.531c-.227-.077-.39-.162-.49-.254a.55.55 0 0 1-.128-.37c0-.192.107-.361.32-.507.227-.146.483-.22.767-.22.27 0 .604.062 1.002.185.654.208 1.272.362 1.854.462.597.092 1.215.138 1.854.138.853 0 1.506-.084 1.961-.254.455-.176.682-.423.682-.738 0-.192-.135-.35-.405-.473a3.778 3.778 0 0 0-.959-.289c-.383-.069-.938-.157-1.662-.265a37.274 37.274 0 0 1-2.6-.439c-.682-.146-1.272-.377-1.77-.692-.482-.315-.724-.738-.724-1.27 0-.622.405-1.157 1.215-1.603.824-.446 1.897-.73 3.218-.854v-.658c0-.207.12-.373.362-.496.242-.13.547-.196.917-.196.383 0 .689.065.916.196.242.123.363.289.363.496v.635a12.51 12.51 0 0 1 3.601.785c.214.076.363.165.448.265.1.1.15.22.15.358 0 .192-.114.361-.342.507-.213.147-.462.22-.746.22-.156 0-.305-.012-.447-.035a4.813 4.813 0 0 1-.554-.15 13.76 13.76 0 0 0-1.578-.45c-.454-.1-1.016-.15-1.683-.15-.768 0-1.386.092-1.855.277-.454.184-.681.43-.681.738 0 .216.134.393.404.531.27.131.611.235 1.023.312.413.077.988.165 1.727.265 1.037.139 1.882.28 2.536.427.668.139 1.236.365 1.705.68.483.309.725.724.725 1.247Z"/><path d="M71.238 38.327c0 6.801-11.642 12.315-26.003 12.315-14.36 0-26.003-5.514-26.003-12.315 0-6.802 11.642-12.315 26.003-12.315s26.003 5.513 26.003 12.315Z"/><path d="M71.238 37.602c0 6.802-11.642 12.316-26.003 12.316-14.36 0-26.003-5.514-26.003-12.316 0-6.801 11.642-12.315 26.003-12.315s26.003 5.514 26.003 12.316Z"/><path d="M71.238 36.878c0 6.801-11.642 12.315-26.003 12.315-14.36 0-26.003-5.514-26.003-12.315 0-6.801 11.642-12.315 26.003-12.315s26.003 5.514 26.003 12.315Z"/><path d="M71.238 36.154c0 6.801-11.642 12.315-26.003 12.315-14.36 0-26.003-5.514-26.003-12.315 0-6.802 11.642-12.316 26.003-12.316s26.003 5.514 26.003 12.316Z"/><path d="M71.238 35.43c0 6.8-11.642 12.314-26.003 12.314-14.36 0-26.003-5.513-26.003-12.315 0-6.801 11.642-12.315 26.003-12.315s26.003 5.514 26.003 12.315Z"/><path d="M71.238 34.705c0 6.801-11.642 12.315-26.003 12.315-14.36 0-26.003-5.514-26.003-12.315 0-6.802 11.642-12.315 26.003-12.315s26.003 5.513 26.003 12.315Z"/><path d="M71.238 33.98c0 6.802-11.642 12.316-26.003 12.316-14.36 0-26.003-5.514-26.003-12.316 0-6.801 11.642-12.315 26.003-12.315S71.238 27.18 71.238 33.98Z"/><path d="M71.238 33.256c0 6.801-11.642 12.315-26.003 12.315-14.36 0-26.003-5.514-26.003-12.315 0-6.802 11.642-12.315 26.003-12.315s26.003 5.514 26.003 12.315Z"/><path d="M71.238 32.532c0 6.801-11.642 12.315-26.003 12.315-14.36 0-26.003-5.514-26.003-12.316 0-6.8 11.642-12.315 26.003-12.315s26.003 5.514 26.003 12.316Z"/><path d="M71.238 31.807c0 6.802-11.642 12.315-26.003 12.315-14.36 0-26.003-5.513-26.003-12.315 0-6.801 11.642-12.315 26.003-12.315s26.003 5.514 26.003 12.315Z"/><path d="M71.238 31.083c0 6.801-11.642 12.315-26.003 12.315-14.36 0-26.003-5.514-26.003-12.315 0-6.802 11.642-12.315 26.003-12.315s26.003 5.513 26.003 12.315Z"/><ellipse cx="45.235" cy="30.511" rx="26.003" ry="11.743"/><path d="M51.106 32.632c0 .623-.397 1.15-1.193 1.581-.781.423-1.84.696-3.176.82v.657c0 .208-.12.373-.362.496-.227.13-.533.196-.916.196-.37 0-.675-.065-.917-.196-.241-.123-.362-.288-.362-.496v-.623a16.886 16.886 0 0 1-2.28-.266 11.032 11.032 0 0 1-1.919-.53c-.227-.077-.39-.162-.49-.254a.55.55 0 0 1-.128-.37c0-.192.107-.361.32-.507.227-.146.483-.22.767-.22.27 0 .604.062 1.002.185.654.208 1.272.362 1.854.462.597.092 1.215.138 1.854.138.853 0 1.506-.084 1.961-.254.455-.176.682-.423.682-.738 0-.192-.135-.35-.405-.473a3.775 3.775 0 0 0-.959-.289c-.384-.069-.938-.157-1.662-.265a37.268 37.268 0 0 1-2.6-.439c-.682-.146-1.272-.377-1.77-.692-.482-.315-.724-.738-.724-1.27 0-.622.405-1.157 1.215-1.603.824-.446 1.897-.73 3.218-.854v-.658c0-.208.12-.373.362-.496.242-.13.547-.196.917-.196.383 0 .689.065.916.196.242.123.362.288.362.496v.635a12.51 12.51 0 0 1 3.602.785c.213.076.363.165.448.265.1.1.15.22.15.358 0 .192-.115.361-.342.507-.213.146-.462.22-.746.22-.156 0-.305-.012-.447-.035a4.824 4.824 0 0 1-.555-.15c-.582-.2-1.108-.35-1.577-.45-.454-.1-1.016-.15-1.683-.15-.768 0-1.386.092-1.855.277-.454.184-.682.43-.682.738 0 .216.135.393.405.531.27.131.611.235 1.023.312.412.077.988.165 1.727.265 1.037.139 1.882.28 2.536.427.668.139 1.236.366 1.705.68.483.309.724.724.724 1.247Z"/></g></svg><svg viewBox="0 0 23 23" id="icon-mail" xmlns="http://www.w3.org/2000/svg"><path d="M4.166 4.167h14.667c1.008 0 1.833.825 1.833 1.833v11a1.839 1.839 0 0 1-1.833 1.833H4.166A1.839 1.839 0 0 1 2.333 17V6c0-1.008.825-1.833 1.833-1.833Z"/><path d="M20.666 6 11.5 12.417 2.333 6"/></svg><svg viewBox="0 0 23 23" id="icon-phone" xmlns="http://www.w3.org/2000/svg"><g clip-path="url(#ia)"><path d="M14.296 5.083a4.583 4.583 0 0 1 3.62 3.621l-3.62-3.62Zm0-3.667a8.25 8.25 0 0 1 7.287 7.279l-7.287-7.279Zm6.37 14.594v2.75a1.832 1.832 0 0 1-1.998 1.833 18.14 18.14 0 0 1-7.91-2.814 17.875 17.875 0 0 1-5.5-5.5 18.14 18.14 0 0 1-2.815-7.947 1.833 1.833 0 0 1 1.824-1.999h2.75A1.833 1.833 0 0 1 8.85 3.91c.117.88.332 1.744.642 2.576A1.833 1.833 0 0 1 9.08 8.42L7.915 9.584a14.667 14.667 0 0 0 5.5 5.5l1.165-1.164a1.833 1.833 0 0 1 1.934-.413c.832.31 1.696.526 2.576.642a1.833 1.833 0 0 1 1.576 1.86Z"/></g><defs><clipPath id="ia"><path transform="translate(.5 .5)" d="M0 0h22v22H0z"/></clipPath></defs></svg><svg viewBox="0 0 40 31" id="icon-quote" xmlns="http://www.w3.org/2000/svg"><path d="M7.416 2.7c.933-1.267 1.967-1.967 3.1-2.1s2.1.1 2.9.7c.867.533 1.333 1.367 1.4 2.5.133 1.133-.333 2.333-1.4 3.6-1.533 1.8-2.567 3.6-3.1 5.4-.533 1.8-.8 3.4-.8 4.8l-.4-4c2.667 0 4.833.767 6.5 2.3 1.667 1.533 2.5 3.6 2.5 6.2 0 2.467-.767 4.5-2.3 6.1-1.533 1.533-3.633 2.3-6.3 2.3-2.733 0-4.867-.9-6.4-2.7-1.533-1.867-2.3-4.433-2.3-7.7 0-1.733.167-3.5.5-5.3.333-1.867.967-3.767 1.9-5.7 1-2 2.4-4.133 4.2-6.4Zm21.2 0c.933-1.267 1.967-1.967 3.1-2.1s2.1.1 2.9.7c.867.533 1.333 1.367 1.4 2.5.133 1.133-.333 2.333-1.4 3.6-1.533 1.8-2.567 3.6-3.1 5.4-.533 1.8-.8 3.4-.8 4.8l-.4-4c2.667 0 4.833.767 6.5 2.3 1.667 1.533 2.5 3.6 2.5 6.2 0 2.467-.767 4.5-2.3 6.1-1.533 1.533-3.633 2.3-6.3 2.3-2.733 0-4.867-.9-6.4-2.7-1.533-1.867-2.3-4.433-2.3-7.7 0-1.733.167-3.5.5-5.3.333-1.867.967-3.767 1.9-5.7 1-2 2.4-4.133 4.2-6.4Z"/></svg><svg viewBox="0 0 17 18" id="instagram" xmlns="http://www.w3.org/2000/svg"><path d="M8.5 4.607a4.268 4.268 0 0 0-4.268 4.268A4.245 4.245 0 0 0 8.5 13.143a4.268 4.268 0 0 0 4.268-4.268c0-2.338-1.93-4.268-4.268-4.268Zm0 7.051a2.78 2.78 0 0 1-2.783-2.783c0-1.521 1.224-2.746 2.783-2.746a2.74 2.74 0 0 1 2.746 2.746c0 1.559-1.225 2.783-2.746 2.783Zm5.418-7.199a.998.998 0 0 0-1.002-1.002.998.998 0 0 0-1.002 1.002.998.998 0 0 0 1.002 1.002.998.998 0 0 0 1.002-1.002Zm2.82 1.002c-.074-1.336-.37-2.524-1.336-3.488C14.438 1.008 13.25.71 11.914.637 10.541.562 6.422.562 5.05.637c-1.336.074-2.487.37-3.488 1.336C.596 2.937.299 4.125.225 5.46c-.075 1.373-.075 5.492 0 6.865.074 1.336.37 2.486 1.336 3.489 1.002.964 2.152 1.261 3.488 1.335 1.373.075 5.492.075 6.865 0 1.336-.074 2.524-.37 3.488-1.335.965-1.002 1.262-2.153 1.336-3.489.075-1.373.075-5.492 0-6.865Zm-1.781 8.312c-.26.743-.854 1.3-1.559 1.596-1.113.446-3.71.334-4.898.334-1.225 0-3.822.112-4.898-.334a2.813 2.813 0 0 1-1.596-1.596c-.445-1.076-.334-3.673-.334-4.898 0-1.188-.111-3.785.334-4.898a2.862 2.862 0 0 1 1.596-1.559c1.076-.445 3.673-.334 4.898-.334 1.188 0 3.785-.111 4.898.334.706.26 1.262.853 1.559 1.559.445 1.113.334 3.71.334 4.898 0 1.225.111 3.822-.334 4.898Z"/></svg><svg viewBox="0 0 16 17" id="linkedin" xmlns="http://www.w3.org/2000/svg"><path d="M3.64 16.5V5.988H.372V16.5h3.27ZM1.989 4.582c1.055 0 1.899-.879 1.899-1.934 0-1.02-.844-1.863-1.899-1.863C.968.785.125 1.63.125 2.648c0 1.055.844 1.934 1.863 1.934ZM15.84 16.5h.035v-5.766c0-2.812-.633-4.992-3.938-4.992-1.582 0-2.636.88-3.093 1.688h-.035V5.988h-3.13V16.5h3.27v-5.203c0-1.371.246-2.672 1.934-2.672 1.687 0 1.723 1.547 1.723 2.777V16.5h3.234Z"/></svg><svg viewBox="0 -0.5 17 17" class="msi-glyph msi-glyph-triangle-down" id="triangle-down" xmlns="http://www.w3.org/2000/svg"><path d="M10.106 12.69a1.49 1.49 0 0 1-2.104 0L1.561 6.246c-.582-.581-.839-2.103 1-2.103h12.988c1.901 0 1.582 1.521 1 2.103l-6.443 6.444Z" class="msi-glyph-fill" fill-rule="evenodd"/></svg><svg viewBox="0 0 18 16" id="twitter" xmlns="http://www.w3.org/2000/svg"><path d="M16.137 4.094a7.818 7.818 0 0 0 1.828-1.899 6.918 6.918 0 0 1-2.11.563 3.607 3.607 0 0 0 1.618-2.04 7.798 7.798 0 0 1-2.32.915 3.691 3.691 0 0 0-2.708-1.16 3.69 3.69 0 0 0-3.691 3.691c0 .281.035.563.105.844A10.71 10.71 0 0 1 1.23 1.14a3.59 3.59 0 0 0-.492 1.863c0 1.266.633 2.39 1.653 3.058-.598-.035-1.196-.175-1.688-.457v.036a3.696 3.696 0 0 0 2.953 3.62c-.281.071-.633.141-.949.141-.246 0-.457-.035-.703-.07.457 1.477 1.828 2.531 3.445 2.566A7.422 7.422 0 0 1 .88 13.48c-.317 0-.598-.035-.879-.07 1.617 1.055 3.55 1.652 5.66 1.652 6.785 0 10.477-5.59 10.477-10.476v-.492Z"/></svg></svg>