<?xml version="1.0" encoding="utf-8"?><svg viewBox="0 0 800 800" xmlns="http://www.w3.org/2000/svg" xmlns:xlink="http://www.w3.org/1999/xlink"><style>:root>svg{display:none}:root>svg:target{display:block}</style><svg viewBox="0 0 14 20" id="arrow-right" xmlns="http://www.w3.org/2000/svg"><path d="M1.616 20c-.268 0-.532-.088-.765-.253-.526-.37-.852-1.087-.852-1.866V2.12c0-.782.326-1.497.852-1.867.238-.17.51-.258.785-.253.275.004.544.1.78.278L13.26 8.342c.226.176.412.42.541.71.13.29.197.616.197.947 0 .332-.068.658-.197.948-.129.29-.315.534-.541.71L2.414 19.722c-.24.181-.516.277-.798.278Z"/></svg><svg viewBox="0 0 24 24" id="arrow-up" xmlns="http://www.w3.org/2000/svg"><path fill-rule="evenodd" d="m4.387 10.79-.094-.083a1 1 0 0 1-.083-1.32l.083-.094 7-7 .044-.042.068-.055.11-.071.114-.054.105-.035.148-.03L12 2l.075.003.126.017.111.03.111.044.098.052.104.074.082.073 7 7a1 1 0 0 1-1.32 1.497l-.094-.083L13 5.416V21a1 1 0 0 1-2 0V5.414l-5.293 5.293a1 1 0 0 1-1.32.083l-.094-.083.094.083Z"/></svg><svg viewBox="0 0 96 103" id="icon-coins" xmlns="http://www.w3.org/2000/svg"><rect width="96" height="103" rx="20"/><mask id="ca" maskUnits="userSpaceOnUse" x="0" y="0" width="96" height="103"><rect width="96" height="103" rx="20"/></mask><g mask="url(#ca)"><path d="M77.11 69.685C77.11 76.486 65.468 82 51.107 82c-14.36 0-26.002-5.514-26.002-12.315 0-6.802 11.641-12.315 26.002-12.315 14.361 0 26.003 5.513 26.003 12.315Z"/><path d="M77.11 68.96c0 6.802-11.642 12.316-26.003 12.316-14.36 0-26.002-5.514-26.002-12.316 0-6.801 11.641-12.315 26.002-12.315 14.361 0 26.003 5.514 26.003 12.315Z"/><path d="M77.11 68.236c0 6.801-11.642 12.315-26.003 12.315-14.36 0-26.002-5.514-26.002-12.315 0-6.802 11.641-12.315 26.002-12.315 14.361 0 26.003 5.514 26.003 12.315Z"/><path d="M77.11 67.511c0 6.802-11.642 12.316-26.003 12.316-14.36 0-26.002-5.514-26.002-12.316 0-6.8 11.641-12.315 26.002-12.315 14.361 0 26.003 5.514 26.003 12.316Z"/><path d="M77.11 66.787c0 6.802-11.642 12.315-26.003 12.315-14.36 0-26.002-5.513-26.002-12.315 0-6.801 11.641-12.315 26.002-12.315 14.361 0 26.003 5.514 26.003 12.315Z"/><path d="M77.11 66.063c0 6.801-11.642 12.315-26.003 12.315-14.36 0-26.002-5.514-26.002-12.315 0-6.802 11.641-12.315 26.002-12.315 14.361 0 26.003 5.513 26.003 12.315Z"/><path d="M77.11 65.338c0 6.802-11.642 12.315-26.003 12.315-14.36 0-26.002-5.513-26.002-12.315 0-6.801 11.641-12.315 26.002-12.315 14.361 0 26.003 5.514 26.003 12.315Z"/><path d="M77.11 64.614c0 6.801-11.642 12.315-26.003 12.315-14.36 0-26.002-5.514-26.002-12.315 0-6.802 11.641-12.315 26.002-12.315 14.361 0 26.003 5.513 26.003 12.315Z"/><path d="M77.11 63.89c0 6.8-11.642 12.315-26.003 12.315-14.36 0-26.002-5.514-26.002-12.316 0-6.801 11.641-12.315 26.002-12.315 14.361 0 26.003 5.514 26.003 12.315Z"/><path d="M77.11 63.165c0 6.801-11.642 12.315-26.003 12.315-14.36 0-26.002-5.514-26.002-12.315 0-6.801 11.641-12.315 26.002-12.315 14.361 0 26.003 5.514 26.003 12.315Z"/><path d="M77.11 62.44c0 6.802-11.642 12.316-26.003 12.316-14.36 0-26.002-5.514-26.002-12.315 0-6.802 11.641-12.316 26.002-12.316 14.361 0 26.003 5.514 26.003 12.316Z"/><path d="M77.11 67.685C77.11 74.486 65.468 80 51.107 80c-14.36 0-26.002-5.514-26.002-12.315 0-6.802 11.641-12.315 26.002-12.315 14.361 0 26.003 5.513 26.003 12.315Z"/><path d="M77.11 66.96c0 6.802-11.642 12.316-26.003 12.316-14.36 0-26.002-5.514-26.002-12.316 0-6.801 11.641-12.315 26.002-12.315 14.361 0 26.003 5.514 26.003 12.315Z"/><path d="M77.11 66.236c0 6.801-11.642 12.315-26.003 12.315-14.36 0-26.002-5.514-26.002-12.315 0-6.802 11.641-12.315 26.002-12.315 14.361 0 26.003 5.514 26.003 12.315Z"/><path d="M77.11 65.511c0 6.802-11.642 12.316-26.003 12.316-14.36 0-26.002-5.514-26.002-12.316 0-6.8 11.641-12.315 26.002-12.315 14.361 0 26.003 5.514 26.003 12.316Z"/><path d="M77.11 64.787c0 6.802-11.642 12.315-26.003 12.315-14.36 0-26.002-5.513-26.002-12.315 0-6.801 11.641-12.315 26.002-12.315 14.361 0 26.003 5.514 26.003 12.315Z"/><path d="M77.11 64.063c0 6.801-11.642 12.315-26.003 12.315-14.36 0-26.002-5.514-26.002-12.315 0-6.802 11.641-12.315 26.002-12.315 14.361 0 26.003 5.513 26.003 12.315Z"/><path d="M77.11 63.338c0 6.802-11.642 12.315-26.003 12.315-14.36 0-26.002-5.513-26.002-12.315 0-6.801 11.641-12.315 26.002-12.315 14.361 0 26.003 5.514 26.003 12.315Z"/><path d="M77.11 62.614c0 6.801-11.642 12.315-26.003 12.315-14.36 0-26.002-5.514-26.002-12.315 0-6.802 11.641-12.315 26.002-12.315 14.361 0 26.003 5.513 26.003 12.315Z"/><path d="M77.11 61.89c0 6.8-11.642 12.315-26.003 12.315-14.36 0-26.002-5.514-26.002-12.316 0-6.801 11.641-12.315 26.002-12.315 14.361 0 26.003 5.514 26.003 12.315Z"/><path d="M77.11 61.165c0 6.801-11.642 12.315-26.003 12.315-14.36 0-26.002-5.514-26.002-12.315 0-6.801 11.641-12.315 26.002-12.315 14.361 0 26.003 5.514 26.003 12.315Z"/><path d="M77.11 60.44c0 6.802-11.642 12.316-26.003 12.316-14.36 0-26.002-5.514-26.002-12.315 0-6.802 11.641-12.316 26.002-12.316 14.361 0 26.003 5.514 26.003 12.316Z"/><ellipse cx="51.107" cy="59.869" rx="26.003" ry="11.743"/><path d="M56.979 61.99c0 .623-.398 1.15-1.194 1.58-.781.424-1.84.697-3.175.82v.658c0 .208-.121.373-.363.496-.227.13-.533.196-.916.196-.37 0-.675-.065-.917-.196-.241-.123-.362-.288-.362-.496v-.623a16.887 16.887 0 0 1-2.28-.266 11.03 11.03 0 0 1-1.919-.53c-.227-.077-.39-.162-.49-.254a.55.55 0 0 1-.128-.37c0-.192.107-.361.32-.507.227-.146.483-.22.767-.22.27 0 .604.062 1.002.185.654.208 1.272.362 1.854.462.597.092 1.215.138 1.854.138.853 0 1.506-.085 1.961-.254.455-.177.682-.423.682-.738 0-.192-.135-.35-.405-.473a3.778 3.778 0 0 0-.959-.289c-.383-.069-.938-.157-1.662-.265a37.274 37.274 0 0 1-2.6-.439c-.682-.146-1.272-.377-1.77-.692-.482-.315-.724-.738-.724-1.27 0-.622.405-1.157 1.215-1.603.824-.446 1.897-.731 3.218-.854v-.658c0-.207.12-.373.362-.496.242-.13.547-.196.917-.196.383 0 .689.065.916.196.242.123.363.289.363.496v.635a12.51 12.51 0 0 1 3.601.785c.214.076.363.165.448.265.1.1.15.22.15.358 0 .192-.114.361-.342.507-.213.146-.462.22-.746.22-.156 0-.305-.012-.447-.035a4.813 4.813 0 0 1-.554-.15 13.76 13.76 0 0 0-1.578-.45c-.454-.1-1.016-.15-1.683-.15-.768 0-1.386.092-1.855.277-.454.184-.681.43-.681.738 0 .216.134.393.404.531.27.13.611.235 1.023.312.413.077.988.165 1.727.265 1.037.139 1.882.28 2.536.427.668.139 1.236.365 1.705.68.483.308.725.724.725 1.247Z"/><path d="M77.11 54.264c0 6.801-11.642 12.315-26.003 12.315-14.36 0-26.002-5.514-26.002-12.315 0-6.802 11.641-12.315 26.002-12.315 14.361 0 26.003 5.513 26.003 12.315Z"/><path d="M77.11 53.54c0 6.8-11.642 12.315-26.003 12.315-14.36 0-26.002-5.514-26.002-12.316 0-6.801 11.641-12.315 26.002-12.315 14.361 0 26.003 5.514 26.003 12.316Z"/><path d="M77.11 52.815c0 6.802-11.642 12.315-26.003 12.315-14.36 0-26.002-5.513-26.002-12.315 0-6.801 11.641-12.315 26.002-12.315 14.361 0 26.003 5.514 26.003 12.315Z"/><path d="M77.11 52.09c0 6.802-11.642 12.316-26.003 12.316-14.36 0-26.002-5.514-26.002-12.315 0-6.802 11.641-12.316 26.002-12.316 14.361 0 26.003 5.514 26.003 12.316Z"/><path d="M77.11 51.366c0 6.802-11.642 12.315-26.003 12.315-14.36 0-26.002-5.513-26.002-12.315 0-6.801 11.641-12.315 26.002-12.315 14.361 0 26.003 5.514 26.003 12.315Z"/><path d="M77.11 50.642c0 6.801-11.642 12.315-26.003 12.315-14.36 0-26.002-5.514-26.002-12.315 0-6.802 11.641-12.315 26.002-12.315 14.361 0 26.003 5.513 26.003 12.315Z"/><path d="M77.11 49.917c0 6.802-11.642 12.316-26.003 12.316-14.36 0-26.002-5.514-26.002-12.316 0-6.801 11.641-12.315 26.002-12.315 14.361 0 26.003 5.514 26.003 12.315Z"/><path d="M77.11 49.193c0 6.801-11.642 12.315-26.003 12.315-14.36 0-26.002-5.514-26.002-12.315 0-6.801 11.641-12.315 26.002-12.315 14.361 0 26.003 5.514 26.003 12.315Z"/><path d="M77.11 48.468c0 6.802-11.642 12.316-26.003 12.316-14.36 0-26.002-5.514-26.002-12.316 0-6.8 11.641-12.315 26.002-12.315 14.361 0 26.003 5.514 26.003 12.316Z"/><path d="M77.11 47.744c0 6.802-11.642 12.315-26.003 12.315-14.36 0-26.002-5.513-26.002-12.315 0-6.801 11.641-12.315 26.002-12.315 14.361 0 26.003 5.514 26.003 12.315Z"/><path d="M77.11 47.02c0 6.801-11.642 12.315-26.003 12.315-14.36 0-26.002-5.514-26.002-12.315 0-6.802 11.641-12.315 26.002-12.315 14.361 0 26.003 5.513 26.003 12.315Z"/><ellipse cx="51.107" cy="46.448" rx="26.003" ry="11.743"/><path d="M56.979 48.57c0 .622-.398 1.15-1.194 1.58-.781.423-1.84.696-3.175.82v.657c0 .208-.121.373-.363.496-.227.13-.533.196-.916.196-.37 0-.675-.065-.917-.196-.241-.123-.362-.288-.362-.496v-.623a16.887 16.887 0 0 1-2.28-.265 11.03 11.03 0 0 1-1.919-.531c-.227-.077-.39-.162-.49-.254a.55.55 0 0 1-.128-.37c0-.192.107-.361.32-.507.227-.146.483-.22.767-.22.27 0 .604.062 1.002.185.654.208 1.272.362 1.854.462.597.092 1.215.138 1.854.138.853 0 1.506-.084 1.961-.254.455-.176.682-.423.682-.738 0-.192-.135-.35-.405-.473a3.778 3.778 0 0 0-.959-.289c-.383-.069-.938-.157-1.662-.265a37.274 37.274 0 0 1-2.6-.439c-.682-.146-1.272-.377-1.77-.692-.482-.315-.724-.738-.724-1.27 0-.622.405-1.157 1.215-1.603.824-.446 1.897-.73 3.218-.854v-.658c0-.207.12-.373.362-.496.242-.13.547-.196.917-.196.383 0 .689.065.916.196.242.123.363.289.363.496v.635a12.51 12.51 0 0 1 3.601.785c.214.076.363.165.448.265.1.1.15.22.15.358 0 .192-.114.361-.342.507-.213.147-.462.22-.746.22-.156 0-.305-.012-.447-.035a4.813 4.813 0 0 1-.554-.15 13.76 13.76 0 0 0-1.578-.45c-.454-.1-1.016-.15-1.683-.15-.768 0-1.386.092-1.855.277-.454.184-.681.43-.681.738 0 .216.134.393.404.531.27.131.611.235 1.023.312.413.077.988.165 1.727.265 1.037.139 1.882.28 2.536.427.668.139 1.236.365 1.705.68.483.309.725.724.725 1.247Z"/><path d="M71.238 38.327c0 6.801-11.642 12.315-26.003 12.315-14.36 0-26.003-5.514-26.003-12.315 0-6.802 11.642-12.315 26.003-12.315s26.003 5.513 26.003 12.315Z"/><path d="M71.238 37.602c0 6.802-11.642 12.316-26.003 12.316-14.36 0-26.003-5.514-26.003-12.316 0-6.801 11.642-12.315 26.003-12.315s26.003 5.514 26.003 12.316Z"/><path d="M71.238 36.878c0 6.801-11.642 12.315-26.003 12.315-14.36 0-26.003-5.514-26.003-12.315 0-6.801 11.642-12.315 26.003-12.315s26.003 5.514 26.003 12.315Z"/><path d="M71.238 36.154c0 6.801-11.642 12.315-26.003 12.315-14.36 0-26.003-5.514-26.003-12.315 0-6.802 11.642-12.316 26.003-12.316s26.003 5.514 26.003 12.316Z"/><path d="M71.238 35.43c0 6.8-11.642 12.314-26.003 12.314-14.36 0-26.003-5.513-26.003-12.315 0-6.801 11.642-12.315 26.003-12.315s26.003 5.514 26.003 12.315Z"/><path d="M71.238 34.705c0 6.801-11.642 12.315-26.003 12.315-14.36 0-26.003-5.514-26.003-12.315 0-6.802 11.642-12.315 26.003-12.315s26.003 5.513 26.003 12.315Z"/><path d="M71.238 33.98c0 6.802-11.642 12.316-26.003 12.316-14.36 0-26.003-5.514-26.003-12.316 0-6.801 11.642-12.315 26.003-12.315S71.238 27.18 71.238 33.98Z"/><path d="M71.238 33.256c0 6.801-11.642 12.315-26.003 12.315-14.36 0-26.003-5.514-26.003-12.315 0-6.802 11.642-12.315 26.003-12.315s26.003 5.514 26.003 12.315Z"/><path d="M71.238 32.532c0 6.801-11.642 12.315-26.003 12.315-14.36 0-26.003-5.514-26.003-12.316 0-6.8 11.642-12.315 26.003-12.315s26.003 5.514 26.003 12.316Z"/><path d="M71.238 31.807c0 6.802-11.642 12.315-26.003 12.315-14.36 0-26.003-5.513-26.003-12.315 0-6.801 11.642-12.315 26.003-12.315s26.003 5.514 26.003 12.315Z"/><path d="M71.238 31.083c0 6.801-11.642 12.315-26.003 12.315-14.36 0-26.003-5.514-26.003-12.315 0-6.802 11.642-12.315 26.003-12.315s26.003 5.513 26.003 12.315Z"/><ellipse cx="45.235" cy="30.511" rx="26.003" ry="11.743"/><path d="M51.106 32.632c0 .623-.397 1.15-1.193 1.581-.781.423-1.84.696-3.176.82v.657c0 .208-.12.373-.362.496-.227.13-.533.196-.916.196-.37 0-.675-.065-.917-.196-.241-.123-.362-.288-.362-.496v-.623a16.886 16.886 0 0 1-2.28-.266 11.032 11.032 0 0 1-1.919-.53c-.227-.077-.39-.162-.49-.254a.55.55 0 0 1-.128-.37c0-.192.107-.361.32-.507.227-.146.483-.22.767-.22.27 0 .604.062 1.002.185.654.208 1.272.362 1.854.462.597.092 1.215.138 1.854.138.853 0 1.506-.084 1.961-.254.455-.176.682-.423.682-.738 0-.192-.135-.35-.405-.473a3.775 3.775 0 0 0-.959-.289c-.384-.069-.938-.157-1.662-.265a37.268 37.268 0 0 1-2.6-.439c-.682-.146-1.272-.377-1.77-.692-.482-.315-.724-.738-.724-1.27 0-.622.405-1.157 1.215-1.603.824-.446 1.897-.73 3.218-.854v-.658c0-.208.12-.373.362-.496.242-.13.547-.196.917-.196.383 0 .689.065.916.196.242.123.362.288.362.496v.635a12.51 12.51 0 0 1 3.602.785c.213.076.363.165.448.265.1.1.15.22.15.358 0 .192-.115.361-.342.507-.213.146-.462.22-.746.22-.156 0-.305-.012-.447-.035a4.824 4.824 0 0 1-.555-.15c-.582-.2-1.108-.35-1.577-.45-.454-.1-1.016-.15-1.683-.15-.768 0-1.386.092-1.855.277-.454.184-.682.43-.682.738 0 .216.135.393.405.531.27.131.611.235 1.023.312.412.077.988.165 1.727.265 1.037.139 1.882.28 2.536.427.668.139 1.236.366 1.705.68.483.309.724.724.724 1.247Z"/></g></svg></svg>