<svg width="14" height="20" viewBox="0 0 14 20" fill="none" xmlns="http://www.w3.org/2000/svg">
<path d="M1.61625 20.0005C1.3476 19.9999 1.0837 19.9124 0.850517 19.7467C0.325444 19.3771 -0.000976562 18.6597 -0.000976562 17.8809V2.12014C-0.000976562 1.33916 0.325444 0.623951 0.850517 0.254387C1.08925 0.0839731 1.36046 -0.0036628 1.63579 0.000639388C1.91112 0.00494158 2.18047 0.101024 2.41567 0.278844L13.2606 8.34185C13.4866 8.51788 13.673 8.76232 13.8021 9.05225C13.9313 9.34218 13.999 9.6681 13.999 9.99945C13.999 10.3308 13.9313 10.6567 13.8021 10.9467C13.673 11.2366 13.4866 11.481 13.2606 11.6571L2.41392 19.7222C2.17322 19.903 1.89752 19.9991 1.61625 20.0005Z" fill="white"/>
</svg>
