<svg width="40" height="31" viewBox="0 0 40 31" fill="none" xmlns="http://www.w3.org/2000/svg">
<path d="M7.41602 2.7C8.34935 1.43333 9.38268 0.73333 10.516 0.599994C11.6493 0.466663 12.616 0.699997 13.416 1.3C14.2827 1.83333 14.7494 2.66666 14.816 3.79999C14.9493 4.93333 14.4827 6.13333 13.416 7.4C11.8827 9.2 10.8493 11 10.316 12.8C9.78268 14.6 9.51602 16.2 9.51602 17.6L9.11602 13.6C11.7827 13.6 13.9493 14.3667 15.616 15.9C17.2827 17.4333 18.116 19.5 18.116 22.1C18.116 24.5667 17.3493 26.6 15.816 28.2C14.2827 29.7333 12.1827 30.5 9.51602 30.5C6.78268 30.5 4.64935 29.6 3.11602 27.8C1.58268 25.9333 0.816016 23.3667 0.816016 20.1C0.816016 18.3667 0.982683 16.6 1.31602 14.8C1.64935 12.9333 2.28268 11.0333 3.21602 9.1C4.21602 7.1 5.61602 4.96666 7.41602 2.7ZM28.616 2.7C29.5494 1.43333 30.5827 0.73333 31.716 0.599994C32.8493 0.466663 33.816 0.699997 34.616 1.3C35.4827 1.83333 35.9494 2.66666 36.016 3.79999C36.1494 4.93333 35.6827 6.13333 34.616 7.4C33.0827 9.2 32.0494 11 31.516 12.8C30.9827 14.6 30.716 16.2 30.716 17.6L30.316 13.6C32.9827 13.6 35.1493 14.3667 36.816 15.9C38.4827 17.4333 39.316 19.5 39.316 22.1C39.316 24.5667 38.5494 26.6 37.016 28.2C35.4827 29.7333 33.3827 30.5 30.716 30.5C27.9827 30.5 25.8494 29.6 24.316 27.8C22.7827 25.9333 22.016 23.3667 22.016 20.1C22.016 18.3667 22.1827 16.6 22.516 14.8C22.8493 12.9333 23.4827 11.0333 24.416 9.1C25.416 7.1 26.816 4.96666 28.616 2.7Z" fill="white"/>
</svg>
