<svg width="26" height="17" viewBox="0 0 26 17" fill="none" xmlns="http://www.w3.org/2000/svg">
<path d="M19.3732 5.50779L21.4775 1.64735C21.5339 1.54372 21.5493 1.42066 21.5204 1.30505C21.4914 1.18943 21.4204 1.09065 21.3229 1.03026C21.2748 1.00032 21.2215 0.980802 21.1661 0.97283C21.1108 0.964858 21.0545 0.968593 21.0005 0.983821C20.9466 0.999048 20.896 1.02546 20.8517 1.06154C20.8075 1.09761 20.7704 1.14263 20.7427 1.19398L18.6122 5.10427C16.9855 4.31717 15.1547 3.87902 13.1857 3.87902C11.2167 3.87902 9.38588 4.3177 7.75923 5.10427L5.62868 1.19398C5.57191 1.09044 5.47863 1.01502 5.36936 0.984319C5.26008 0.953616 5.14377 0.970142 5.046 1.03026C4.94823 1.09038 4.87702 1.18917 4.84803 1.3049C4.81904 1.42062 4.83464 1.54381 4.89141 1.64735L6.99075 5.50779C3.36386 7.58782 0.905796 11.4776 0.5 16.0313H25.8684C25.4626 11.4776 23.0046 7.58782 19.3732 5.50779ZM7.35988 12.2584C7.14958 12.2584 6.944 12.1924 6.76914 12.0687C6.59429 11.9449 6.458 11.7691 6.37752 11.5633C6.29705 11.3575 6.27599 11.1311 6.31702 10.9127C6.35804 10.6942 6.45931 10.4936 6.60802 10.3361C6.75672 10.1786 6.94618 10.0714 7.15244 10.0279C7.3587 9.98449 7.57249 10.0068 7.76678 10.092C7.96108 10.1772 8.12714 10.3216 8.24398 10.5068C8.36081 10.6919 8.42317 10.9097 8.42317 11.1324C8.42304 11.431 8.31097 11.7173 8.1116 11.9285C7.91222 12.1396 7.64184 12.2583 7.35988 12.2584ZM19.0036 12.2584C18.7935 12.2575 18.5883 12.1907 18.4141 12.0664C18.2398 11.9421 18.1042 11.7659 18.0244 11.56C17.9446 11.3542 17.9242 11.1279 17.9657 10.9098C18.0073 10.6917 18.1089 10.4915 18.2578 10.3345C18.4066 10.1775 18.5961 10.0707 18.8022 10.0276C19.0084 9.98453 19.2219 10.0071 19.416 10.0925C19.61 10.1778 19.7758 10.3222 19.8924 10.5073C20.0091 10.6923 20.0713 10.9099 20.0713 11.1324C20.0713 11.2804 20.0436 11.4271 19.99 11.5638C19.9364 11.7006 19.8579 11.8248 19.7589 11.9294C19.6599 12.034 19.5424 12.1169 19.4132 12.1733C19.2839 12.2298 19.1454 12.2587 19.0056 12.2584H19.0036Z" fill="#242331"/>
</svg>
