<svg width="20" height="22" viewBox="0 0 20 22" fill="none" xmlns="http://www.w3.org/2000/svg">
<path d="M14.4741 5.14893C12.4982 5.14893 11.6631 6.0936 10.287 6.0936C8.87612 6.0936 7.79994 5.1558 6.08766 5.1558C4.41164 5.1558 2.62437 6.18099 1.48939 7.92745C-0.104303 10.3903 0.166213 15.0287 2.74738 18.9802C3.67066 20.3947 4.90366 21.9811 6.52087 21.9983H6.55028C7.95578 21.9983 8.37332 21.0762 10.3076 21.0654H10.337C12.2424 21.0654 12.6246 21.9929 14.0242 21.9929H14.0536C15.6709 21.9757 16.97 20.218 17.8933 18.8088C18.5578 17.7954 18.8048 17.2868 19.3145 16.1403C15.5807 14.7203 14.9809 9.41712 18.6735 7.38392C17.5463 5.96987 15.9624 5.15089 14.4692 5.15089L14.4741 5.14893Z" fill="white"/>
<path d="M14.0387 0C12.8626 0.0800318 11.4904 0.830269 10.6867 1.8098C9.95749 2.69751 9.35765 4.01436 9.59288 5.29143H9.68698C10.9396 5.29143 12.2216 4.53579 12.9704 3.56755C13.6918 2.64596 14.2387 1.33992 14.0387 0Z" fill="white"/>
</svg>
