<svg width="23" height="23" viewBox="0 0 23 23" fill="none" xmlns="http://www.w3.org/2000/svg">
<g clip-path="url(#clip0_1_3772)">
<path d="M14.2955 5.08317C15.1908 5.25786 16.0137 5.69574 16.6587 6.34078C17.3038 6.98582 17.7416 7.80866 17.9163 8.704L14.2955 5.08317ZM14.2955 1.4165C16.1557 1.62315 17.8903 2.45616 19.2145 3.77876C20.5388 5.10136 21.374 6.83493 21.583 8.69484L14.2955 1.4165ZM20.6663 16.0098V18.7598C20.6674 19.0151 20.6151 19.2678 20.5128 19.5017C20.4105 19.7357 20.2605 19.9456 20.0724 20.1182C19.8843 20.2908 19.6622 20.4222 19.4203 20.504C19.1785 20.5858 18.9222 20.6161 18.668 20.5932C15.8473 20.2867 13.1377 19.3228 10.7572 17.779C8.54233 16.3716 6.66455 14.4938 5.25715 12.279C3.70797 9.88761 2.74388 7.16492 2.44299 4.3315C2.42008 4.07802 2.45021 3.82253 2.53145 3.58133C2.61269 3.34012 2.74326 3.11847 2.91486 2.93049C3.08645 2.74251 3.29531 2.59232 3.52813 2.48948C3.76095 2.38664 4.01263 2.33341 4.26715 2.33317H7.01715C7.46202 2.32879 7.8933 2.48633 8.2306 2.77641C8.56791 3.06649 8.78822 3.46933 8.85049 3.90984C8.96656 4.7899 9.18182 5.654 9.49215 6.48567C9.61549 6.81377 9.64218 7.17034 9.56907 7.51314C9.49596 7.85595 9.32611 8.17061 9.07965 8.41984L7.91549 9.584C9.22041 11.8789 11.1206 13.7791 13.4155 15.084L14.5797 13.9198C14.8289 13.6734 15.1435 13.5035 15.4863 13.4304C15.8291 13.3573 16.1857 13.384 16.5138 13.5073C17.3455 13.8177 18.2096 14.0329 19.0897 14.149C19.5349 14.2118 19.9416 14.4361 20.2323 14.7792C20.523 15.1223 20.6775 15.5603 20.6663 16.0098Z" stroke="#5236FF" stroke-width="2" stroke-linecap="round" stroke-linejoin="round"/>
</g>
<defs>
<clipPath id="clip0_1_3772">
<rect width="22" height="22" fill="white" transform="translate(0.5 0.5)"/>
</clipPath>
</defs>
</svg>
